<?xml version="1.0" ?>
<!DOCTYPE svg  PUBLIC '-//W3C//DTD SVG 1.1//EN'  'http://www.w3.org/Graphics/SVG/1.1/DTD/svg11.dtd'>
<svg 
id="bistro-and-restaurant" 
style="enable-background:new 0 0 64 64;" 
version="1.1" 
viewBox="0 0 64 64" 
xml:space="preserve" 
xmlns="http://www.w3.org/2000/svg" 
xmlns:xlink="http://www.w3.org/1999/xlink">
<g>
<path d="M56.797,10.932c-0.673-3.026-4.321-5.548-8.698-7.621
   c-4.377-2.073-10.662-2.634-12.907-2.858c-2.245-0.224-4.77-0.897-12.177,0C15.607,1.35,9.21,4.096,7.414,5.609
      C5.619,7.122,5.899,8.915,6.292,9.587c0.393,0.672,2.076,4.147,2.076,4.147s0.224,0.785,0.224,1.009
         c0,0.224,0.393,0.448,0.842,0.56c0.449,0.112,0.505,0.504,0.673,0.897c0.168,0.392,1.459,1.121,1.459,1.121
            s4.545,10.647,6.958,16.98c2.413,6.332,6.285,20.062,7.632,24.433s1.347,4.819,2.525,5.212c1.178,0.392,2.076-1.289,4.097-4.931
               c2.02-3.642,6.453-11.992,10.213-21.35c3.76-9.358,9.652-21.014,9.652-21.014c0.561-0.897,1.347-0.168,2.525-0.56
                  C56.348,15.695,57.471,13.958,56.797,10.932z M18.778,28.864c-0.87-2.83-2.076-5.548-2.189-6.024
                     c-0.112-0.476,1.487-0.981,2.104-1.345c0,0,1.712-0.841,2.048-1.037c0.337-0.196,1.15-0.336,2.413-0.336
                        c1.263,0,3.507,0.56,3.872,0.644c0.365,0.084,1.094,0.364,1.684,1.205s1.15,2.55,1.431,4.399c0.281,1.849,0,2.998-0.814,4.651
                           c-0.814,1.653-2.89,3.166-3.732,3.25c-0.842,0.084-3.872-0.084-4.489-0.28C20.49,33.796,19.648,31.694,18.778,28.864z
                               M38.335,42.958c-1.066,2.606-2.245,5.464-2.413,5.632c-0.168,0.168-0.281,0.196-0.645,0.252c-0.365,0.056-1.908-1.821-2.553-3.054
                                  c-0.645-1.233-0.477-4.231,0.281-5.632c0.758-1.401,2.609-2.97,3.086-3.138c0,0,1.74-0.336,1.964-0.28
                                     c0.224,0.056,1.487,0.925,1.768,1.429C40.102,38.671,39.401,40.352,38.335,42.958z M48.857,17.769
                                        c-0.673,1.401-2.273,3.867-4.181,8.518s-3.984,10.591-4.068,10.675s-0.477-0.28-0.926-0.841c-0.449-0.56-0.982-0.785-2.189-0.813
                                           c-1.207-0.028-3.171,0.785-4.854,2.718c-1.684,1.933-2.02,5.296-1.712,7.313c0.309,2.017,3.03,4.651,3.535,4.875
                                              c0.505,0.224-0.449,1.653-1.375,3.362c-0.926,1.709-2.834,5.324-2.918,5.604c-0.084,0.28-0.505,0.672-0.589,0.869
                                                 c-0.084,0.196-0.449-0.588-0.87-1.793c-0.421-1.205-2.666-7.369-3.676-11.011c-1.01-3.642-2.974-10.255-3.367-10.927
                                                    c-0.393-0.672,0.253-0.504,0.954-0.504s1.459-0.028,3.255-0.028c1.796,0,2.778-1.541,4.237-3.839
                                                       c1.459-2.298,1.824-5.155,0.505-8.91c-1.319-3.754-4.012-3.614-5.191-3.67c-1.178-0.056-3.143-0.42-4.798-0.224
                                                          c-1.655,0.196-4.545,2.27-4.658,2.41c-0.112,0.14-2.778-6.08-3.171-7.145c-0.393-1.065,0.117-1.278,0.505-1.457
                                                             c0.365-0.168,2.048-0.841,3.171-0.812c1.122,0.028,3.423,0.841,4.349,1.149c0.926,0.308,1.459,0.196,2.666-0.308
                                                                c1.207-0.504,4.854-2.298,7.155-3.082c2.301-0.785,6.061,2.522,7.071,2.942c1.01,0.42,3.872,0.252,6.65-0.168
                                                                   s4.433,1.849,4.882,2.466C49.698,15.752,49.53,16.368,48.857,17.769z M53.991,13.454c-0.617,0.224-0.561-0.224-1.347,0
                                                                      c-0.786,0.224-1.01,0.28-1.347-0.056c-0.337-0.336-1.684-2.354-4.377-2.97c-2.694-0.616-4.433-0.28-5.836,0
                                                                         c-1.403,0.28-1.627,0.448-2.413,0.112c-0.786-0.336-2.132-1.681-3.479-2.073c-1.347-0.392-3.143-1.401-5.387-0.785
                                                                            c-2.245,0.616-5.107,1.961-6.285,2.522c-1.178,0.56-1.684,0.897-2.638,0.616c-0.954-0.28-5.724-1.009-7.015-0.672
                                                                               c-1.563,0.407-2.806,2.017-3.479,1.849S8.256,9.083,8.929,8.242s4.994-3.418,10.887-4.651s9.933-1.177,16.723-0.224
                                                                                  c6.79,0.953,12.234,3.026,14.254,4.483c2.02,1.457,3.311,2.746,3.311,3.474S54.609,13.23,53.991,13.454z M18.02,13.818
                                                                                     c-0.297,0.163-0.533,0.56,0.028,0.981c0.561,0.42,0.926,0.448,1.178,0.42c0.253-0.028,0.701-0.308,0.365-0.616
                                                                                        C19.255,14.294,18.582,13.51,18.02,13.818z M26.606,14.154c-0.438,0.069-0.758,0.757-0.14,1.653
                                                                                           c0.617,0.897,1.038,0.729,1.403,0.476c0.365-0.252,0.561-1.065,0.224-1.261C27.757,14.827,27.139,14.07,26.606,14.154z
                                                                                               M33.901,13.286c-0.337-0.224-1.347-0.841-1.852-0.728c-0.295,0.065-0.421,0.897-0.14,1.569c0.281,0.672,0.87,0.869,1.459,0.588
                                                                                                  C33.958,14.435,34.238,13.51,33.901,13.286z M43.329,15.864c-0.389,0.058-1.122,0.757-0.365,1.121
                                                                                                     c0.758,0.364,1.263-0.28,1.291-0.476C44.283,16.312,43.89,15.78,43.329,15.864z M39.541,20.291
                                                                                                        c-0.595,0.396-2.245,1.821-1.487,3.418c0.758,1.597,1.796,1.961,3.283,1.457c1.487-0.504,3.227-1.289,2.525-3.25
                                                                                                           C43.161,19.954,41.561,18.946,39.541,20.291z M40.804,21.439c0.758-0.28,1.066,0.308,1.01,0.532
                                                                                                              c-0.056,0.224-0.505,0.364-1.206,0.252C39.906,22.112,40.488,21.556,40.804,21.439z M41.982,23.709
                                                                                                                 c-0.421,0.308-0.982,0.42-1.599,0.56c-0.617,0.14-0.926-0.28-1.263-0.757s0.415-0.269,0.673-0.14
                                                                                                                    c0.168,0.084,1.066,0.336,1.543,0.196c0.477-0.14,0.898-0.476,1.178-0.672C42.796,22.7,42.403,23.401,41.982,23.709z
                                                                                                                        M22.033,24.662c0.253-0.308,0.253-0.729-0.112-0.925c-0.365-0.196-0.702-0.168-1.066-0.14c-0.364,0.028-0.786,0.364-0.196,0.925
                                                                                                                           C21.247,25.082,21.78,24.97,22.033,24.662z M25.793,24.493c0.337-0.336,0.421-0.897,0.281-1.121
                                                                                                                              c-0.14-0.224-0.421-0.56-0.842-0.588c-0.346-0.023-0.758,0.588-0.449,1.233C25.091,24.662,25.456,24.83,25.793,24.493z
                                                                                                                                  M25.231,25.838c-0.112-0.476-0.926-0.841-1.431-0.729c-0.442,0.098-0.87,0.925,0,1.121C24.67,26.427,25.344,26.315,25.231,25.838z
                                                                                                                                      M21.921,27.996c-0.337,0-0.926,0.616,0.028,1.093c0.954,0.476,1.571,0.168,1.235-0.532S22.341,27.996,21.921,27.996z
                                                                                                                                          M27.336,29.004c0.589,0.336,1.01,0.28,1.01-0.14c0-0.42-0.112-0.953-1.038-0.785C26.999,28.136,26.747,28.668,27.336,29.004z
                                                                                                                                              M25.512,31.162c0.87,0.448,1.375-0.168,1.235-0.588c-0.14-0.42-0.87-0.729-1.319-0.757C24.972,29.789,24.642,30.714,25.512,31.162
                                                                                                                                                 z M34.154,26.147c-0.394,0-0.421,0.364-0.758,0.672c-0.337,0.308-0.309,1.597,0.309,1.877c0.617,0.28,1.992,0.42,2.048-0.644
                                                                                                                                                    S35.417,26.147,34.154,26.147z M34.996,40.632c0.617,0.476,0.898,0.252,1.066-0.252c0.168-0.504-0.337-0.841-0.954-0.672
                                                                                                                                                       C34.809,39.789,34.379,40.156,34.996,40.632z M37.661,38.475c-0.26,0.182-0.281,0.813,0.224,1.065
                                                                                                                                                          c0.505,0.252,1.178,0.028,1.15-0.56C39.008,38.391,38.419,37.943,37.661,38.475z M35.136,43.21
                                                                                                                                                             c-0.195,0.023-1.01,0.336-0.393,1.037c0.617,0.7,0.982,0.42,1.319,0.196c0.337-0.224,0.505-0.672,0.196-0.953
                                                                                                                                                                C35.95,43.21,35.613,43.154,35.136,43.21z M26.69,37.887c-0.647-0.04-1.263,0.476-1.796,1.513c-0.533,1.037-0.701,2.83,0.561,3.474
                                                                                                                                                                   c1.263,0.644,2.469,0.672,3.311-1.037s0.645-2.83,0.112-3.334C28.346,37.999,27.139,37.915,26.69,37.887z M26.859,39.316
                                                                                                                                                                      c0.365-0.084,0.702,0.056,0.702,0.224s-0.393,0.7-0.814,0.56C26.326,39.96,26.388,39.424,26.859,39.316z M26.55,42.061
                                                                                                                                                                         c-0.758-0.196-0.365-0.729-0.196-0.701c0,0,0.365-0.084,0.702-0.084c0.337,0,0.393-0.028,0.589,0.392
                                                                                                                                                                            C27.841,42.089,27.308,42.258,26.55,42.061z"
                                                                                                                                                                             id="restaurant-003"
                                                                                                                                                                              style="fill:#000000;"/>
</g>
</svg>