<?xml version="1.0" ?>
<svg 
id="Layer_1" 
style="enable-background:new 0 0 512 512;" 
version="1.1" 
viewBox="0 0 512 512" 
xml:space="preserve" 
xmlns="http://www.w3.org/2000/svg" 
xmlns:xlink="http://www.w3.org/1999/xlink">
<g>
<path d="M494.84,188.859c-1.999-2.751-5.878-3.352-8.599-1.353l-14.567,10.613c-0.676,0.496-1.263,1.127-1.684,1.849   l-48.226,81.915l-68.235,61.244c-1.954,1.473-4.765,1.263-6.479-0.496c-1.383-1.443-1.458-3.097-1.383-3.954   s0.451-2.45,2.526-3.969l36.29-31.659c2.571-2.24,2.826-6.133,0.601-8.689c-2.255-2.586-6.164-2.811-8.689-0.601l-35.824,31.299   c-1.1,0.785-1.786,1.937-2.66,2.936c-0.235,0.165-0.508,0.243-0.723,0.446l-20.67,19.002c-1.999,1.759-5.081,1.594-6.825-0.421   c-1.687-1.876-1.591-4.69,0.072-6.561l1.054-1.114l55.427-51.645c2.48-2.315,2.631-6.209,0.316-8.704   c-2.3-2.511-6.224-2.631-8.704-0.316l-53.983,50.09l-0.087,0.088c-0.001,0.001-0.002,0.001-0.003,0.002l-0.02,0.021l-2.686,2.715   c-0.128,0.131-0.169,0.306-0.292,0.44l-5.856,6.205c-1.744,1.609-4.224,2.465-6.389,2.285c-2.39-0.15-4.555-1.233-6.118-3.052   c-3.067-3.608-2.661-9.08,1.188-12.447l7.197-7.089l48.26-42.595c2.556-2.255,2.796-6.133,0.541-8.689   c-2.24-2.556-6.133-2.796-8.689-0.541l-47.716,42.117c-0.073,0.065-0.169,0.086-0.24,0.156l-0.535,0.528l-5.96,5.26   c-1.428,1.263-3.157,1.894-5.156,1.639c-1.879-0.195-3.533-1.158-4.66-2.691c-1.969-2.721-1.609-6.494,0.872-8.779l63.589-58.839   c0.02-0.019,0.025-0.044,0.045-0.063c0.008-0.008,0.022-0.005,0.03-0.012c4.119-3.939,7.396-8.584,9.726-13.8l15.138-33.614   c0.767-1.699,0.722-3.638-0.12-5.307c-0.827-1.654-2.375-2.856-4.194-3.247l-8.9-1.894c-7.321-1.624-15.018,0.06-21.091,4.555   l-12.132,9.02c-4.134,3.473-9.11,5.141-14.988,4.735c-4.826-0.286-8.945-2.992-11.019-7.246c-0.556-1.143-0.691-1.789-0.797-1.894   c0.646-0.556,2.556-1.323,3.743-1.789c1.654-0.676,3.247-1.353,4.54-2.135c10.448-6.314,21.362-13.56,30.427-23.617   c4.149-4.6,9.411-7.817,14.973-9.215c3.187-0.571,45.234-4.72,70.986-7.201c0.556-0.06,1.097-0.18,1.624-0.391   c1.744-0.661,5.021-1.924,74.909-62.597c2.556-2.225,2.841-6.118,0.601-8.689c-2.24-2.586-6.118-2.871-8.689-0.601   c-6.746,5.858-12.823,11.119-18.364,15.902l24.873-50.839c1.488-3.052,0.225-6.75-2.826-8.238   c-3.052-1.473-6.735-0.225-8.238,2.826l-37.449,76.541c-21.225,18.084-27.357,22.841-28.861,23.939   c-31.509,3.052-68.911,6.735-71.316,7.351c-8.193,2.06-15.574,6.539-21.362,12.973c-7.998,8.869-18.025,15.484-27.661,21.332   c-0.782,0.466-1.759,0.827-2.766,1.218c-3.638,1.473-8.629,3.473-10.643,8.704c-1.323,3.458-0.917,7.441,1.233,11.831   c3.999,8.178,12.177,13.59,21.362,14.131c8.915,0.541,17.092-2.12,23.346-7.381l11.831-8.779c3.202-2.375,7.306-3.262,11.154-2.405   l1.458,0.301l-12.011,26.668c-1.679,3.762-4.031,7.103-6.982,9.925l-63.538,58.791c-6.762,6.243-7.84,16.324-2.98,23.995   l-9.894,39.408c-0.232,0.51-0.324,1.068-0.412,1.64l-1.582,6.304c-0.782,3.097-3.788,5.021-7.005,4.63   c-1.684-0.271-3.142-1.203-4.104-2.616c-0.977-1.398-1.308-3.097-1.007-4.585l16.641-68.731l38.68-42.303   c2.3-2.495,2.12-6.404-0.391-8.689c-2.495-2.285-6.389-2.135-8.689,0.391l-39.747,43.46c-0.707,0.767-1.203,1.684-1.443,2.706   l-13.729,56.692c-0.006,0.022-0.022,0.036-0.026,0.057c-1.022,4.224-5.307,6.855-9.531,5.953c-2.135-0.466-3.939-1.744-5.096-3.608   c-1.143-1.849-1.488-4.044-0.947-6.224l16.085-67.363l46.542-50.315c1.939-2.105,2.18-5.277,0.571-7.652   c-0.601-0.857-6.073-8.494-16.356-9.907c-8.103-1.112-16.416,1.939-24.85,9.005c-5.833,4.916-10.854,7.772-15.364,8.734   c-10.222,2.195-17.964,1.593-23.015-1.804c-2.571-1.714-4.194-4.044-5.216-6.359c10.237-4.75,28.818-14.597,37.342-26.653   c10.989-15.574,23.076-28.878,30.051-33.073c4.69-2.811,9.877-4.75,15.454-5.758l47.204-8.509c1.263-0.225,2.435-0.842,3.322-1.774   c8.418-8.689,8.749-9.305,17.303-25.225c6.615-12.312,18.911-35.237,44.783-80.096c1.699-2.946,0.691-6.72-2.255-8.418   c-2.946-1.684-6.72-0.692-8.418,2.255c-25.962,45.039-38.319,68.054-44.964,80.426c-7.516,14.011-8.028,14.958-13.921,21.061   l-45.249,8.163c-7.035,1.263-13.635,3.728-19.603,7.321c-10.237,6.164-24.158,22.91-33.764,36.53   c-6.645,9.381-23.527,18.896-37.116,24.654c-2.646,1.127-4.164,3.939-3.653,6.765c1.458,8.058,5.667,14.777,11.846,18.926   c7.892,5.307,18.806,6.509,32.441,3.608c6.615-1.413,13.199-5.021,20.73-11.35c5.607-4.705,10.673-6.78,15.093-6.254   c1.714,0.21,3.187,0.827,4.39,1.533l-43.46,46.993c-0.707,0.782-1.218,1.729-1.458,2.751l-16.446,68.851   c-1.353,5.382-0.481,10.929,2.435,15.634c2.916,4.72,7.501,7.967,12.898,9.155c1.458,0.316,2.916,0.481,4.345,0.481   c1.556,0,3.028-0.421,4.514-0.768c0.033,3.633,0.77,7.203,2.883,10.284c2.886,4.209,7.246,6.975,12.282,7.787   c0.977,0.165,1.969,0.241,2.946,0.241c6.05,0,11.659-3.08,15.097-7.927c2.693,2.035,5.771,3.594,9.347,3.928   c0.601,0.06,1.188,0.075,1.789,0.075c4.659,0,8.961-1.722,12.263-4.61c2.272,2.271,4.914,4.182,8.212,5.031   c1.609,0.421,3.202,0.616,4.78,0.616c8.133,0,15.514-5.352,17.994-13.83l1.608-6.821c1.314,0.314,2.593,0.823,3.94,0.823   c4.074,0,8.163-1.428,11.47-4.36l10.695-9.835c0.776,1.558,1.495,3.157,2.729,4.438c3.322,3.428,7.742,5.201,12.267,5.201   c3.773,0,7.607-1.233,10.944-3.788l69.317-62.191c0.466-0.421,0.872-0.917,1.188-1.458l48.06-81.629l13.53-9.862   C496.238,195.458,496.84,191.61,494.84,188.859z M270.804,361.753c-0.451,3.488-3.503,5.983-6.96,5.637   c-2.971-0.275-5.23-2.598-5.655-5.518l8.74-34.813c0.644,0.185,1.231,0.504,1.895,0.621c-1.227,6.014-0.101,12.402,4.048,17.453   L270.804,361.753z M295.834,363.797c-0.962,3.322-4.51,5.367-7.772,4.435c-3.352-0.857-5.427-4.345-4.615-7.742   c0.085-0.35,0.016-0.687,0.039-1.034l0.938-7.529c1.14,0.263,2.174,0.824,3.368,0.895c0.436,0.015,0.872,0.03,1.293,0.03   c3.048,0,5.95-0.848,8.722-2.153c0.207,0.464,0.537,0.876,0.788,1.324L295.834,363.797z"/><path d="M162.837,200.103h-2.616v-10.012c0-9.11-7.411-16.536-16.521-16.536h-2.796v-26.939c0-3.397-2.766-6.164-6.164-6.164   h-18.776v-39.447h0.977c5.044,0,9.06-3.817,9.741-8.689h20.719l11.091,16.145c1.188,1.729,3.112,2.676,5.081,2.676   c1.067,0,2.15-0.286,3.142-0.872l22.324-13.229c1.428-0.842,2.45-2.225,2.841-3.848c0.391-1.609,0.12-3.322-0.767-4.72   l-21.076-33.493c-0.122-0.194-0.314-0.3-0.453-0.474c-0.269-0.342-0.548-0.646-0.881-0.924c-0.299-0.247-0.603-0.448-0.937-0.632   c-0.352-0.197-0.703-0.355-1.094-0.481c-0.388-0.124-0.769-0.193-1.172-0.238c-0.234-0.027-0.44-0.137-0.68-0.137h-38.156   c-0.722-4.827-4.711-8.599-9.724-8.599H67.603c-5.517,0-10.012,4.495-10.012,10.027v37.462c0,5.532,4.495,10.027,10.012,10.027   h1.398v39.447H50.225c-3.397,0-6.164,2.766-6.164,6.164v26.939h-3.217c-9.11,0-16.521,7.426-16.521,16.536v10.012h-2.18   c-3.397,0-6.164,2.766-6.164,6.164V460.61c0,13.004,10.583,23.602,23.587,23.602h105.832c13.004,0,23.602-10.598,23.602-23.602   V206.267C169.001,202.869,166.235,200.103,162.837,200.103z M126.953,64.416h34.468l15.893,25.255l-11.921,7.065l-9.666-14.071   c-0.109-0.157-0.276-0.238-0.396-0.381c-0.279-0.337-0.583-0.618-0.926-0.89c-0.293-0.23-0.579-0.439-0.903-0.61   c-0.365-0.195-0.74-0.329-1.143-0.448c-0.382-0.113-0.752-0.195-1.148-0.233c-0.194-0.019-0.364-0.114-0.564-0.114h-23.692V64.416z    M69.918,55.817h44.708v2.435v27.901v2.526h-4.826H75.165h-5.247V55.817z M103.637,101.006v39.447H81.328v-39.447H103.637z    M56.389,152.78h72.188v20.776H56.389V152.78z M36.65,190.091c0-2.33,1.879-4.209,4.194-4.209h9.381h84.515h8.96   c2.315,0,4.194,1.879,4.194,4.209v10.012H36.65V190.091z M28.307,336.613l19.032-10.874V403.8c0,3.397,2.766,6.164,6.164,6.164   h15.771l-40.967,23.404V336.613z M59.666,397.637V262.31h65.213v135.327H59.666z M156.674,460.61   c0,6.224-5.051,11.275-11.275,11.275H39.567c-6.209,0-11.26-5.051-11.26-11.275v-13.052l65.807-37.594h36.928   c3.397,0,6.164-2.766,6.164-6.164v-18.449l19.468-11.119V460.61z M156.674,360.043l-19.468,11.119v-96.748l19.468-11.123V360.043z    M156.674,249.1l-19.468,11.123v-4.077c0-3.397-2.766-6.164-6.164-6.164h-77.54c-3.397,0-6.164,2.766-6.164,6.164v55.401   l-19.032,10.874V212.43h2.18h123.571h2.616V249.1z"/><path d="M180.155,104.494c-2.15,1.052-3.488,3.262-3.428,5.652c0,0.105,0.18,9.185-0.977,16.566   c-1.684,10.824-3.037,22.038,0.661,29.585c3.382,6.84,8.915,12.162,15.619,14.958c3.337,1.383,6.765,2.075,10.147,2.075   c3.683,0,7.306-0.827,10.658-2.465c12.973-6.389,17.754-23.301,10.658-37.733c-3.713-7.532-13.424-13.304-23.046-18.581   c-6.539-3.593-13.635-9.275-13.71-9.335C184.89,103.712,182.29,103.411,180.155,104.494z M188.694,121.812   c1.864,1.218,3.848,2.45,5.833,3.533c5.457,2.992,15.619,8.569,17.919,13.229c4.104,8.328,1.834,17.844-5.051,21.227v0.015   c-3.187,1.563-6.96,1.593-10.628,0.06c-3.939-1.639-7.246-4.841-9.29-9.02c-2.3-4.675-0.451-16.536,0.451-22.234   C188.273,126.367,188.513,124.036,188.694,121.812z"/>
<path d="M96.857,304.658c-1.082-2.15-3.262-3.518-5.697-3.397c-2.39,0.06-4.525,1.518-5.472,3.713   c-0.045,0.09-3.909,9.035-8.343,15.74c-6.449,9.711-12.718,19.949-12.447,28.818c0.21,8.058,3.202,15.574,8.403,21.212   c5.231,5.652,12.071,8.749,19.347,8.749c0.241,0,0.481,0,0.707-0.015c15.228-0.421,27.24-14.552,26.759-31.509   c-0.256-8.854-7.081-18.716-14.056-28.067C101.262,313.467,96.887,304.748,96.857,304.658z M93.024,367.18   c-3.894,0.06-7.727-1.593-10.688-4.811c-3.172-3.428-4.991-8.103-5.141-13.184c-0.165-5.713,6.72-16.1,10.403-21.678   c1.473-2.21,2.871-4.6,4.119-6.885c1.368,2.21,2.886,4.51,4.48,6.645c3.999,5.367,11.455,15.349,11.62,21.046   C108.087,358.476,101.457,366.939,93.024,367.18z"/>
</g>
</svg>