<?xml version="1.0" ?><!DOCTYPE svg  PUBLIC '-//W3C//DTD SVG 1.1//EN'  'http://www.w3.org/Graphics/SVG/1.1/DTD/svg11.dtd'><svg enable-background="new 0 0 100 100" height="100px" id="Layer_1" version="1.1" viewBox="0 0 100 100" width="100px" xml:space="preserve" xmlns="http://www.w3.org/2000/svg" xmlns:xlink="http://www.w3.org/1999/xlink"><g><path d="M40.566,14.226c-3.379,0-6.477,0.901-8.871,2.563c-2.394,1.634-4.14,4.169-4.14,7.126   c0,3.521,2.337,6.479,5.745,8.113v0.479H16.628c-1.267,0-2.394,1.126-2.394,2.394v19.859c0,1.268,1.126,2.394,2.394,2.394h4.759   c1.014,0,1.972-0.704,2.281-1.661c0.958-2.986,2.647-4.338,4.337-4.338c1.098,0,2.225,0.647,3.21,2.112   c1.014,1.437,1.718,3.69,1.718,6.169c0,2.507-0.704,4.704-1.718,6.169c-0.986,1.465-2.112,2.084-3.21,2.084   c-1.802,0-3.408-1.154-4.337-4.112c-0.31-0.958-1.267-1.662-2.281-1.662h-4.759c-1.267,0-2.394,1.155-2.394,2.395v19.07   c0,1.268,1.126,2.395,2.394,2.395h48.467c1.266,0,2.393-1.127,2.393-2.395V66.704h0.451c1.662,3.408,4.59,5.746,8.109,5.746   c2.957,0,5.52-1.746,7.154-4.141c1.66-2.395,2.563-5.493,2.563-8.873c0-3.381-0.902-6.507-2.563-8.901   c-1.635-2.395-4.197-4.141-7.154-4.141c-3.604,0-6.477,2.536-8.109,6h-0.451V34.901c0-1.268-1.127-2.394-2.393-2.394H47.606v-0.451   c3.464-1.634,5.999-4.507,5.999-8.141c0-2.958-1.775-5.493-4.168-7.126C47.043,15.127,43.945,14.226,40.566,14.226L40.566,14.226z    M40.566,18.986c2.479,0,4.731,0.732,6.167,1.718c1.464,1.014,2.112,2.112,2.112,3.211c0,1.69-1.352,3.409-4.337,4.338   c-0.958,0.31-1.662,1.296-1.662,2.282v4.366c0,1.239,1.126,2.366,2.394,2.366h17.488v17.493c0,1.268,1.127,2.394,2.367,2.394h4.363   c0.986,0,1.943-0.704,2.254-1.661c0.93-2.986,2.646-4.338,4.336-4.338c1.1,0,2.225,0.647,3.24,2.112   c0.984,1.437,1.717,3.69,1.717,6.169c0,2.507-0.732,4.704-1.717,6.169c-1.016,1.465-2.141,2.084-3.24,2.084   c-1.801,0-3.406-1.154-4.336-4.112c-0.311-0.93-1.268-1.634-2.254-1.662h-4.363c-1.24,0-2.367,1.155-2.367,2.395v16.704H18.994   v-14.31h0.901c1.662,3.408,4.618,5.746,8.11,5.746c2.957,0,5.492-1.746,7.153-4.141c1.633-2.395,2.534-5.493,2.534-8.873   c0-3.381-0.901-6.507-2.534-8.901c-1.662-2.395-4.196-4.141-7.153-4.141c-3.604,0-6.505,2.536-8.139,6h-0.873V37.268h16.7   c1.239,0,2.394-1.127,2.394-2.366v-4.366c0-0.986-0.704-1.972-1.662-2.282c-2.957-0.929-4.112-2.535-4.112-4.338   c0-1.099,0.592-2.197,2.056-3.211C35.835,19.718,38.06,18.986,40.566,18.986L40.566,18.986z" fill="#010101"/></g></svg>