<?xml version="1.0" ?><svg viewBox="0 0 83.46 61" xmlns="http://www.w3.org/2000/svg"><defs><style>.cls-1,.cls-2,.cls-3,.cls-4{fill:none;stroke:#000;}.cls-1,.cls-2,.cls-3{stroke-miterlimit:10;}.cls-2,.cls-4{stroke-width:2px;}.cls-3{stroke-width:3px;}.cls-4{stroke-linejoin:round;}</style></defs><title/><g data-name="Layer 1 copy" id="Layer_1_copy"><path d="M25.4,67.22l-.68,5.06c-.28,1-2.83,9.8-8.45,9.8-4.6,0-6.69-8.33-7.63-15.33l0-.23c-.74-3.7.43-20.38.73-24.5q0,.41,0,.83a14.89,14.89,0,0,0,1.93,7.33c-.37,6.49-.66,13.83-.24,15.9,0,0,0,.17,0,.36,1.23,9.14,3.51,13.23,5.23,13.23,3.17,0,5.49-5.78,6.09-7.93L24.21,57.8h.24a11.67,11.67,0,0,0,.95,9.42Z" transform="translate(-8.37 -21.07)"/><path d="M50,23.49c-.61,0-1.29,0-2,.06v0C48.5,23.48,49.19,23.48,50,23.49Z" transform="translate(-8.37 -21.07)"/><path d="M62.7,49.87a11.66,11.66,0,0,0-3.07,1,43.78,43.78,0,0,0-19.08,0,11.66,11.66,0,0,0-3.07-1c.11-.22.23-.43.32-.66l.35.24c.7-.64,2.56-1.46,7.42-1.88,1.29-.11,2.77-.2,4.51-.25s3.23.14,4.51.25c4.85.42,6.72,1.24,7.42,1.88l.35-.24C62.48,49.44,62.59,49.65,62.7,49.87Z" transform="translate(-8.37 -21.07)"/><path d="M40.56,50.82a11.66,11.66,0,0,0-3.07-1c.11-.22.23-.43.32-.66A15,15,0,0,0,26.49,28a15.37,15.37,0,0,0-2.22-.16,15,15,0,0,0-4.1.57l-.15,0a15.22,15.22,0,0,0-5.28,2.79l-.09.06a.22.22,0,0,0-.06.06l-.07.06a14.71,14.71,0,0,0-5.1,9.64v0c0,.13,0,.25,0,.38l0,.26c0,.08,0,.17,0,.25q0,.41,0,.83a15,15,0,0,0,14.9,15h.24a11.67,11.67,0,0,0,.95,9.42,11.73,11.73,0,1,0,15.16-16.4Zm-5,19.93A9.31,9.31,0,0,1,27.42,57l1.2-2.21-2.48.44a6.91,6.91,0,0,1-.74.1c-.34,0-.71,0-1.12,0A12.55,12.55,0,0,1,11.73,42.84c0-.24,0-.48,0-.72s0-.48.06-.72a12.31,12.31,0,0,1,4.23-8.07l.1-.08a12.94,12.94,0,0,1,4.53-2.43l.15,0,.11,0A12.54,12.54,0,0,1,35.2,49a11,11,0,0,1-.78,1.21l-1.55,2.22,2.74-.3a9.3,9.3,0,0,1,0,18.61Z" transform="translate(-8.37 -21.07)"/><path d="M74.79,67.22l.68,5.06c.28,1,2.83,9.8,8.45,9.8,4.6,0,6.69-8.33,7.63-15.33l0-.23c.74-3.7-.43-20.38-.73-24.5q0,.41,0,.83A14.89,14.89,0,0,1,89,50.17c.37,6.49.66,13.83.24,15.9,0,0,0,.17,0,.36-1.23,9.14-3.51,13.23-5.23,13.23-3.17,0-5.49-5.78-6.09-7.93L76,57.8h-.24a11.67,11.67,0,0,1-.95,9.42Z" transform="translate(-8.37 -21.07)"/><path d="M80.18,28.49l-.15,0a15,15,0,0,0-4.1-.57,15.37,15.37,0,0,0-2.22.16c-4.26-2-7.47-3.16-9.28-3.41-2.75-.39-6.51-.73-9.81-.93-.85-.06-1.67-.1-2.43-.13v0c-.49,0-1.18,0-2,0H50c-.84,0-1.54,0-2,0v0c-.76,0-1.58.07-2.43.13-3.3.2-7.06.54-9.81.93-1.81.26-5,1.45-9.28,3.41a15.37,15.37,0,0,0-2.22-.16,15,15,0,0,0-4.1.57l-.15,0c5.08-2.59,11.86-5.76,15.41-6.27.11,0,7.9-1,13.44-1.13h.07l1.06,0h.19l1.06,0h.07c5.53.15,13.32,1.12,13.44,1.13C68.32,22.73,75.1,25.9,80.18,28.49Z" transform="translate(-8.37 -21.07)"/><path d="M52.19,23.52v0c-.74,0-1.42-.06-2-.06C51,23.48,51.7,23.48,52.19,23.52Z" transform="translate(-8.37 -21.07)"/><path d="M90.86,42c0-.08,0-.17,0-.25l0-.26c0-.13,0-.25,0-.38v0a14.71,14.71,0,0,0-5.1-9.64l-.07-.06a.22.22,0,0,0-.06-.06l-.09-.06a15.22,15.22,0,0,0-5.28-2.79l-.15,0a15,15,0,0,0-4.1-.57,15.37,15.37,0,0,0-2.22.16A15,15,0,0,0,62.38,49.21c.1.23.21.44.32.66a11.74,11.74,0,1,0,13,7.94H76a15,15,0,0,0,14.9-15Q90.89,42.42,90.86,42ZM75.92,55.38c-.41,0-.78,0-1.12,0a6.91,6.91,0,0,1-.74-.1l-2.48-.44L72.77,57a9.31,9.31,0,1,1-8.18-4.86l2.74.3-1.55-2.22A11,11,0,0,1,65,49,12.53,12.53,0,0,1,79.25,30.75l.11,0,.15,0A12.94,12.94,0,0,1,84,33.25l.1.08a12.31,12.31,0,0,1,4.23,8.07c0,.24,0,.48.06.72s0,.48,0,.72A12.55,12.55,0,0,1,75.92,55.38Z" transform="translate(-8.37 -21.07)"/></g><g data-name="Layer 4" id="Layer_4"><path d="M41.5,60.5v3a.5.5,0,0,1-.5.5H38.5a.5.5,0,0,0-.5.5V67a.5.5,0,0,1-.5.5h-3A.5.5,0,0,1,34,67V64.5a.5.5,0,0,0-.5-.5H31a.5.5,0,0,1-.5-.5v-3A.5.5,0,0,1,31,60h2.5a.5.5,0,0,0,.5-.5V57a.5.5,0,0,1,.5-.5h3a.5.5,0,0,1,.5.5v2.5a.5.5,0,0,0,.5.5H41A.5.5,0,0,1,41.5,60.5Z" transform="translate(-8.37 -21.07)"/><circle class="cls-1" cx="15.63" cy="21.93" r="8"/><circle class="cls-1" cx="67.63" cy="21.93" r="8"/><circle class="cls-2" cx="67.63" cy="21.93" r="4"/><circle class="cls-3" cx="15.63" cy="21.93" r="3.89"/><circle class="cls-3" cx="56.13" cy="40.43" r="3.32"/><polygon class="cls-1" points="58.53 34.64 53.74 34.64 50.35 38.03 50.35 42.82 53.74 46.21 58.53 46.21 61.92 42.82 61.92 38.03 58.53 34.64"/><circle class="cls-2" cx="60.63" cy="27.93" r="2"/><circle class="cls-1" cx="41.63" cy="20.93" r="2"/><circle class="cls-1" cx="27.63" cy="40.93" r="7"/><path class="cls-4" d="M71.76,35.12h0a1.28,1.28,0,0,1,.51-1.21h0A6.6,6.6,0,0,1,75.06,33l.38,0a6.6,6.6,0,0,1,2.89.45h0A1.28,1.28,0,0,1,79,34.6h0c.06.76-.38,1.38-.92,1.29l-.24,0a6.39,6.39,0,0,0-1.49-.07l-1.8.13a6.39,6.39,0,0,0-1.46.28l-.23.07C72.33,36.43,71.81,35.89,71.76,35.12Z" transform="translate(-8.37 -21.07)"/><path class="cls-4" d="M83.4,36.89h0a1.28,1.28,0,0,1,1.27.33h0a6.6,6.6,0,0,1,1.25,2.64l.08.37a6.6,6.6,0,0,1,0,2.92h0A1.28,1.28,0,0,1,85,44h0c-.75.16-1.42-.18-1.41-.73V43a6.39,6.39,0,0,0-.15-1.48L83,39.76a6.39,6.39,0,0,0-.49-1.41l-.1-.22C82.18,37.65,82.65,37.05,83.4,36.89Z" transform="translate(-8.37 -21.07)"/></g></svg>